# xmcd
#
# Track frame offsets:
#	150
#	16746
#	30857
#	44100
#	64551
#	86454
#	106508
#	122339
#	136290
#	152781
#
# Disc length: 2274 seconds
#
# Revision: 0
# Processed by: cddbd v1.5.2PL0 Copyright (c) Steve Scherf et al.
# Submitted via: EasyCDDAExtractor 16.0.1.1
#
DISCID=6a08e00a
DTITLE=Archie Brown - Prisoner Of Fender
DYEAR=1997
DGENRE=Country
TTITLE0=The Killer
TTITLE1=There's A Hole In It
TTITLE2=Can't Afford To Lose You
TTITLE3=Sugar
TTITLE4=Robert's Song
TTITLE5=Never Gonna Be Another One
TTITLE6=Don't Ask me If I Love You
TTITLE7=Why Won't You See Me Again
TTITLE8=Victim Of Your Own Charms
TTITLE9=Murray's Song
EXTD=
EXTT0=
EXTT1=
EXTT2=
EXTT3=
EXTT4=
EXTT5=
EXTT6=
EXTT7=
EXTT8=
EXTT9=
PLAYORDER=
